<?xml version="1.0" standalone="no"?>
<!DOCTYPE svg PUBLIC "-//W3C//DTD SVG 1.1//EN" "http://www.w3.org/Graphics/SVG/1.1/DTD/svg11.dtd">
<svg xmlns="http://www.w3.org/2000/svg">
<defs >
<font id="Jost" horiz-adv-x="546" ><font-face
    font-family="Jost ExtraBold"
    units-per-em="1000"
    panose-1="0 0 0 0 0 0 0 0 0 0"
    ascent="1070"
    descent="-375"
    alphabetic="0" />
<glyph unicode=" " horiz-adv-x="300" />
<glyph unicode="!" horiz-adv-x="356" d="M72 700L108 240H249L285 700H72ZM72 68Q72 26 102 0T178 -27Q225 -27 254 -1T284 68Q284 111 255 137T178 164Q132 164 102 138T72 68Z" />
<glyph unicode="&quot;" horiz-adv-x="534" d="M98 700L56 376H167L277 700H98ZM318 700L276 376H388L498 700H318Z" />
<glyph unicode="#" horiz-adv-x="686" d="M75 404H220L250 412H458L491 404H651V541H75V404ZM35 164H611V301H488L455 293H216L179 301H35V164ZM479 700L428 489V454L378 251L363 223L309 0H457L627 700H479ZM229 700L59 0H206L261 226L260 254L308 453L325 490L376
700H229Z" />
<glyph unicode="$" horiz-adv-x="634" d="M263 818L271 628H394L402 818H263ZM271 66L263 -112H401L393 66H271ZM451 482L596 563Q573 602 540 635T457 689T329 710Q252 710 194 683T102 612T69 516Q69 464 89 426T139 362T203 319T262 292Q304 276 335 263T383
236T401 198Q401 179 393 166T369 147T326 141Q291 141 263 153T210 192T160 258L27 163Q49 117 93 78T197 15T321 -10Q407 -10 471 14T570 84T606 198Q606 243 593 278T555 339T498 385T427 419Q385 435 349 447T290 475T268 518Q268 533 275 545T297 565T336
573Q359 573 379 563T418 532T451 482Z" />
<glyph unicode="%" horiz-adv-x="969" d="M19 530Q19 477 45 433T117 364T217 338Q273 338 318 363T389 433T416 530Q416 583 390 626T318 696T217 722Q162 722 117 696T46 627T19 530ZM159 530Q159 546 167 559T188 580T217 588Q234 588 247 580T267 559T275
530Q275 515 268 501T247 480T217 472Q201 472 188 479T167 501T159 530ZM553 171Q553 118 579 75T651 5T752 -21Q808 -21 852 5T923 74T950 171Q950 224 924 267T853 337T752 363Q697 363 652 337T580 268T553 171ZM694 171Q694 187 701 200T722 221T752 229Q768
229 781 221T802 200T810 171Q810 156 802 143T781 121T752 113Q735 113 722 121T702 142T694 171ZM676 700L113 0H293L856 700H676Z" />
<glyph unicode="&amp;" horiz-adv-x="775" d="M223 368L563 0H759L389 393Q345 440 320 469T294 528Q294 547 309 565T356 584Q374 584 387 575T408 554T415 528Q415 503 387 475T302 421Q281 412 248 401T179 373T112 332T60 273T40 189Q40 126 73 81T163 11T289
-14Q365 -14 430 11T550 76T648 164T722 259L609 348Q581 303 547 263T475 193T397 146T314 129Q282 129 262 139T231 168T220 205Q220 233 236 251T278 281T334 306T390 336Q434 366 467 388T523 433T557 482T569 546Q569 588 545 627T474 693T357 719Q286 719
235 693T156 625T129 540Q129 505 142 477T176 422T223 368Z" />
<glyph unicode="&apos;" horiz-adv-x="313" d="M98 700L56 376H167L277 700H98Z" />
<glyph unicode="(" horiz-adv-x="350" d="M185 780Q125 668 94 543T62 290Q62 163 93 38T185 -200H341Q289 -87 259 38T228 290Q228 418 258 543T341 780H185Z" />
<glyph unicode=")" horiz-adv-x="350" d="M166 -200Q226 -87 257 38T289 290Q289 418 258 543T166 780H10Q63 668 92 543T122 290Q122 163 93 38T10 -200H166Z" />
<glyph unicode="*" horiz-adv-x="592" d="M507 605L283 492L309 413L556 454L507 605ZM506 299L329 476L263 429L377 206L506 299ZM215 206L329 429L263 476L86 299L215 206ZM36 454L283 413L309 492L85 605L36 454ZM217 700L255 453H337L375 700H217Z" />
<glyph unicode="+" horiz-adv-x="692" d="M65 191H627V356H65V191ZM257 552V-6H435V552H257Z" />
<glyph unicode="," horiz-adv-x="328" d="M112 110L24 -149L154 -173L284 77L112 110Z" />
<glyph unicode="-" horiz-adv-x="226" d="M5 164H221V311H5V164Z" />
<glyph unicode="." horiz-adv-x="329" d="M59 76Q59 34 88 4T165 -27Q212 -27 241 3T270 76Q270 119 241 149T165 180Q118 180 89 150T59 76Z" />
<glyph unicode="/" horiz-adv-x="636" d="M456 700L15 -150H188L621 700H456Z" />
<glyph unicode="0" horiz-adv-x="681" d="M226 350Q226 396 234 433T258 496T294 535T340 549Q366 549 386 536T422 496T446 433T455 350Q455 304 447 267T423 204T387 165T340 151Q315 151 294 164T258 204T235 267T226 350ZM40 350Q40 233 78 152T183 29T340
-14Q433 -14 500 28T604 152T641 350Q641 467 605 548T501 671T340 714Q251 714 184 672T78 548T40 350Z" />
<glyph unicode="1" horiz-adv-x="527" d="M64 479L243 521V0H429V714L64 644V479Z" />
<glyph unicode="2" horiz-adv-x="682" d="M20 0H643V177H374L519 299Q566 337 594 383T622 486Q622 529 604 569T551 643T463 695T344 715Q248 715 183 677T85 575T52 436H242Q242 469 253 495T287 535T337 550Q359 550 374 544T401 527T417 502T422 473Q422 446
411 422T378 372T327 314L20 0Z" />
<glyph unicode="3" horiz-adv-x="643" d="M281 337Q369 337 441 355T555 414T598 518Q598 573 568 617T479 688T336 714Q257 714 198 684T107 602T74 486H252Q252 520 275 541T336 562Q360 562 375 555T399 535T407 505Q407 488 398 473T372 445T332 426T281 419V337ZM327
-18Q420 -18 485 9T584 84T618 193Q618 247 594 285T524 348T418 384T281 395V301Q321 301 348 294T393 275T419 246T427 211Q427 184 415 167T383 142T335 135Q310 135 287 145T249 177T235 233H44Q44 185 63 140T118 59T207 3T327 -18Z" />
<glyph unicode="4" horiz-adv-x="732" d="M12 120H686V284H543L526 255H261L398 438V187L374 176V0H576V700H424L12 120Z" />
<glyph unicode="5" horiz-adv-x="669" d="M629 222Q629 296 598 346T518 423T415 449Q380 449 348 444T288 425L325 532H611V700H184L85 287Q121 303 157 311T228 322T287 325Q318 325 347 318T396 293T416 246Q416 217 400 198T356 171T287 163Q265 163 236 169T175
190T110 226L46 60Q81 41 123 24T218 -3T335 -14Q386 -14 438 -1T533 41T602 115T629 222Z" />
<glyph unicode="6" horiz-adv-x="697" d="M242 250Q242 282 256 306T294 343T349 356Q379 356 403 343T441 306T455 250Q455 218 441 195T403 159T349 146Q319 146 295 159T256 195T242 250ZM334 696L142 460Q104 413 77 362T50 250Q50 160 91 101T199 12T349
-18Q430 -18 498 11T606 100T647 250Q647 305 628 347T576 418T505 463T428 478Q389 478 364 470T308 433L351 454L580 696H334Z" />
<glyph unicode="7" horiz-adv-x="626" d="M30 519H341L76 0H286L625 700H30V519Z" />
<glyph unicode="8" horiz-adv-x="651" d="M76 531Q76 481 98 445T158 385T238 350T325 339Q368 339 412 350T493 384T552 444T575 531Q575 593 541 634T450 697T325 718Q258 718 202 697T111 635T76 531ZM258 513Q258 534 266 550T290 574T325 583Q346 583 361
575T384 550T393 513Q393 492 385 477T361 452T325 442Q306 442 291 451T267 476T258 513ZM51 190Q51 140 73 101T135 36T223 -4T325 -18Q378 -18 427 -4T515 36T577 101T600 190Q600 248 574 287T506 351T416 387T325 398Q282 398 235 387T145 352T77 288T51 190ZM245
220Q245 242 255 260T284 288T325 299Q348 299 366 289T395 260T406 220Q406 193 396 175T367 148T325 138Q303 138 285 147T256 175T245 220Z" />
<glyph unicode="9" horiz-adv-x="697" d="M455 450Q455 418 441 395T403 358T349 344Q319 344 295 357T256 394T242 450Q242 482 256 505T294 541T349 554Q379 554 403 541T441 505T455 450ZM363 4L555 240Q593 287 620 338T647 450Q647 540 607 599T498 688T349
718Q267 718 200 689T91 600T50 450Q50 395 69 353T121 282T192 237T269 222Q308 222 333 231T389 267L346 246L117 4H363Z" />
<glyph unicode=":" horiz-adv-x="329" d="M59 76Q59 34 88 4T165 -27Q212 -27 241 3T270 76Q270 119 241 149T165 180Q118 180 89 150T59 76ZM59 448Q59 406 88 376T165 345Q212 345 241 375T270 448Q270 491 241 521T165 552Q118 552 89 522T59 448Z" />
<glyph unicode=";" horiz-adv-x="412" d="M117 440Q117 398 147 368T223 337Q270 337 299 367T329 440Q329 483 300 513T223 544Q177 544 147 514T117 440ZM140 110L52 -149L183 -173L313 77L140 110Z" />
<glyph unicode="&lt;" horiz-adv-x="640" d="M305 269L575 368V536L65 324V207L575 -5V164L305 269Z" />
<glyph unicode="=" horiz-adv-x="630" d="M53 67H577V215H53V67ZM53 290H577V438H53V290Z" />
<glyph unicode="&gt;" horiz-adv-x="640" d="M335 262L65 164V-5L575 207V324L65 536V368L335 262Z" />
<glyph unicode="?" horiz-adv-x="647" d="M422 500Q422 478 404 453T348 408T250 389H216L236 210H376L380 284Q434 295 483 321T563 393T595 500Q595 554 573 595T512 664T427 707T329 722Q270 722 220 707T127 661T44 588L157 491Q187 534 231 556T319 579Q352
579 375 570T410 543T422 500ZM201 64Q201 28 230 1T306 -27Q354 -27 383 0T412 64Q412 101 383 128T306 156Q260 156 231 129T201 64Z" />
<glyph unicode="@" horiz-adv-x="770" d="M331 320Q331 347 339 371T360 409T391 424Q402 424 410 418T422 398T426 362Q426 333 417 310T394 272T365 258Q349 258 340 274T331 320ZM198 311Q198 262 213 227T258 172T328 152Q368 152 401 177T456 252T477 370Q477
414 461 450T417 508T354 530Q316 530 280 505T221 430T198 311ZM15 320Q15 221 54 142T172 16T365 -30Q439 -30 496 -17T599 22L561 122Q519 103 477 91T381 79Q298 79 244 109T164 192T137 320Q137 386 156 440T212 533T299 595T415 617Q469 617 509 599T577
550T619 478T633 390Q633 331 623 301T599 259T574 248Q566 248 561 252T554 265T551 286Q551 292 551 300T553 313L575 520H447L427 302L442 262Q437 229 452 202T497 159T560 142Q597 142 632 156T695 199T739 276T755 390Q755 452 733 512T666 621T558 697T415
726Q328 726 255 695T128 609T45 479T15 320Z" />
<glyph unicode="A" horiz-adv-x="757" d="M195 113H565L560 256H201L195 113ZM378 413L471 203L460 153L540 0H760L378 747L-3 0H217L298 160L286 203L378 413Z" />
<glyph unicode="B" horiz-adv-x="695" d="M216 342H353Q428 342 486 362T579 423T613 521Q613 581 579 620T487 680T353 700H72V0H371Q459 0 522 19T619 82T653 195Q653 249 629 287T563 350T472 386T371 398H216V292H347Q369 292 387 289T420 278T443 257T451
224Q451 193 437 177T400 154T347 148H266V552H329Q369 552 390 537T411 490Q411 469 402 454T374 431T329 423H216V342Z" />
<glyph unicode="C" horiz-adv-x="705" d="M245 350Q245 409 271 450T342 513T439 535Q489 535 526 522T592 489T643 445V649Q602 680 553 699T426 718Q339 718 266 692T141 617T61 501T32 350Q32 267 60 200T141 83T266 8T426 -18Q503 -18 552 1T643 51V255Q621
232 592 212T526 178T439 165Q386 165 342 186T272 249T245 350Z" />
<glyph unicode="D" horiz-adv-x="749" d="M72 700V0H273V700H72ZM334 0Q453 0 538 42T670 163T717 350Q717 459 671 537T539 657T334 700H204V530H326Q361 530 394 523T455 496T498 441T515 350Q515 295 499 260T455 205T395 178T326 170H204V0H334Z" />
<glyph unicode="E" horiz-adv-x="619" d="M204 0H557V157H204V0ZM204 543H557V700H204V543ZM204 288H537V440H204V288ZM72 700V0H258V700H72Z" />
<glyph unicode="F" horiz-adv-x="569" d="M204 535H517V700H204V535ZM204 263H507V416H204V263ZM72 700V0H258V700H72Z" />
<glyph unicode="G" horiz-adv-x="826" d="M425 247H598Q589 224 575 204T540 170T493 148T431 140Q373 140 329 165T260 237T235 350Q235 416 261 461T332 529T431 552Q487 552 522 526T578 462L755 547Q721 596 675 634T569 695T431 718Q346 718 273 693T146
619T62 502T32 350Q32 266 61 197T142 78T266 1T423 -26Q515 -26 586 6T704 96T773 229T788 391H425V247Z" />
<glyph unicode="H" horiz-adv-x="808" d="M119 279H663V452H119V279ZM542 700V0H736V700H542ZM72 700V0H266V700H72Z" />
<glyph unicode="I" horiz-adv-x="342" d="M72 700V0H270V700H72Z" />
<glyph unicode="J" horiz-adv-x="357" d="M-73 -52L-180 -186Q-155 -200 -123 -213T-51 -235T31 -244Q82 -244 127 -234T208 -202T264 -142T285 -52V700H72V-6Q72 -49 52 -66T8 -84Q-13 -84 -35 -74T-73 -52Z" />
<glyph unicode="K" horiz-adv-x="739" d="M72 700V0H274V700H72ZM501 700L218 366L507 0H742L449 372L727 700H501Z" />
<glyph unicode="L" horiz-adv-x="551" d="M72 700V0H549V165H266V700H72Z" />
<glyph unicode="M" horiz-adv-x="915" d="M277 322L457 65L638 322L677 0H883L762 735L457 332L153 735L32 0H238L277 322Z" />
<glyph unicode="N" horiz-adv-x="799" d="M541 700V344L72 735V0H258V356L727 -35V700H541Z" />
<glyph unicode="O" horiz-adv-x="830" d="M237 350Q237 407 259 450T321 517T415 542Q472 542 511 518T572 450T593 350Q593 294 571 251T510 183T415 158Q361 158 321 182T259 250T237 350ZM32 350Q32 268 60 199T139 80T261 2T415 -26Q499 -26 569 1T691 79T770
199T798 350Q798 433 770 500T689 616T568 691T415 718Q334 718 265 692T143 617T62 501T32 350Z" />
<glyph unicode="P" horiz-adv-x="645" d="M72 700V0H266V700H72ZM196 543H331Q377 543 402 523T427 466Q427 428 402 408T331 388H196V232H331Q427 232 489 260T582 341T613 466Q613 539 583 591T490 671T331 700H196V543Z" />
<glyph unicode="Q" horiz-adv-x="885" d="M237 350Q237 407 260 450T324 517T419 542Q484 542 528 512T594 432T617 326Q617 269 595 228T531 165T435 142Q381 142 336 167T264 239T237 350ZM32 350Q32 268 60 199T141 80T264 2T419 -26Q503 -26 572 1T693 79T771
199T798 350Q798 433 770 500T692 616T572 691T419 718Q338 718 268 692T145 617T62 501T32 350ZM350 300L690 -16H893L545 300H350Z" />
<glyph unicode="R" horiz-adv-x="673" d="M261 309L445 0H671L461 309H261ZM72 700V0H266V700H72ZM196 536H331Q362 536 383 527T415 501T427 458Q427 433 416 415T383 388T331 379H196V232H347Q443 232 505 261T598 344T629 466Q629 535 599 587T506 670T347
700H196V536Z" />
<glyph unicode="S" horiz-adv-x="648" d="M164 256L32 160Q55 108 100 66T206 -1T340 -26Q391 -26 440 -12T527 31T588 103T611 202Q611 244 598 278T561 338T505 384T433 418Q388 434 354 447T300 476T280 515Q280 535 297 547T343 559Q366 559 388 550T429 525T464
483L610 564Q591 600 556 635T467 694T339 718Q268 718 210 694T117 625T82 513Q82 461 101 423T150 359T212 317T270 290Q323 270 352 256T394 229T406 195Q406 167 385 153T332 138Q299 138 268 152T211 192T164 256Z" />
<glyph unicode="T" horiz-adv-x="590" d="M2 527H198V0H392V527H588V700H2V527Z" />
<glyph unicode="U" horiz-adv-x="723" d="M67 700V230Q67 159 90 109T153 28T247 -19T361 -34Q422 -34 475 -19T569 27T633 109T656 230V700H462V246Q462 198 437 169T361 139Q311 139 286 168T261 246V700H67Z" />
<glyph unicode="V" horiz-adv-x="757" d="M378 319L225 700H-3L378 -47L760 700H532L378 319Z" />
<glyph unicode="W" horiz-adv-x="1087" d="M730 335L543 735L357 335L234 700H2L313 -43L543 343L774 -43L1085 700H853L730 335Z" />
<glyph unicode="X" horiz-adv-x="724" d="M466 700L366 514L268 700H27L246 357L2 0H243L364 215L481 0H723L484 357L708 700H466Z" />
<glyph unicode="Y" horiz-adv-x="689" d="M468 700L345 455L221 700H-3L246 278V0H444V280L692 700H468Z" />
<glyph unicode="Z" horiz-adv-x="642" d="M63 527H321L7 0H590V165H310L630 700H63V527Z" />
<glyph unicode="[" horiz-adv-x="381" d="M260 632H361V780H88V-220H361V-72H260V632Z" />
<glyph unicode="\" horiz-adv-x="555" d="M15 700L375 0H540L181 700H15Z" />
<glyph unicode="]" horiz-adv-x="381" d="M121 -72H20V-220H293V780H20V632H121V-72Z" />
<glyph unicode="^" horiz-adv-x="510" d="M255 569L325 444H477L307 710H203L33 444H185L255 569Z" />
<glyph unicode="_" horiz-adv-x="540" d="M0 -160H540V-51H0V-160Z" />
<glyph unicode="`" horiz-adv-x="375" d="M47 652L227 502L324 548L174 708L47 652Z" />
<glyph unicode="a" horiz-adv-x="556" d="M196 144Q196 159 202 168T222 183T259 188Q292 188 322 179T372 153V226Q359 240 334 251T275 270T203 277Q115 277 69 239T22 135Q22 88 45 56T105 7T187 -10Q233 -10 271 6T332 53T355 128L339 188Q339 157 327 137T294
107T252 97Q237 97 224 102T204 118T196 144ZM112 309Q121 314 144 323T197 339T257 346Q278 346 294 342T320 329T334 308T339 281V0H504V322Q504 371 475 405T395 456T281 474Q216 474 159 458T57 422L112 309Z" />
<glyph unicode="b" horiz-adv-x="631" d="M227 780H54V0H227V780ZM600 230Q600 309 569 362T488 442T384 470Q327 470 282 441T210 359T183 230Q183 156 209 102T281 19T384 -10Q439 -10 488 17T568 98T600 230ZM418 230Q418 200 405 176T370 139T321 126Q298
126 277 138T241 174T227 230Q227 263 241 286T276 321T321 334Q348 334 370 321T405 285T418 230Z" />
<glyph unicode="c" horiz-adv-x="498" d="M208 230Q208 260 223 284T264 322T320 336Q341 336 365 330T411 309T448 273V435Q424 449 391 459T304 470Q225 470 163 441T66 358T30 230Q30 157 65 103T163 20T304 -10Q358 -10 391 0T448 26V188Q434 167 414 153T369
131T320 124Q290 124 264 136T223 173T208 230Z" />
<glyph unicode="d" horiz-adv-x="631" d="M404 780V0H577V780H404ZM31 230Q31 152 62 99T143 18T247 -10Q305 -10 350 19T421 102T448 230Q448 305 422 358T350 441T247 470Q193 470 144 443T63 362T31 230ZM213 230Q213 261 226 284T261 321T309 334Q332 334
354 322T390 286T404 230Q404 197 390 174T354 139T309 126Q283 126 261 139T226 176T213 230Z" />
<glyph unicode="e" horiz-adv-x="591" d="M305 -10Q397 -10 460 25T561 131L405 162Q390 136 364 123T299 109Q268 109 247 123T215 165T205 231Q205 275 215 303T245 346T295 360Q319 360 336 350T363 320T373 272Q373 265 369 255T360 237L397 283H126V194H555Q556
203 556 214T557 238Q557 313 527 364T440 443T299 470Q215 470 155 441T63 359T31 230Q31 156 64 103T158 20T305 -10Z" />
<glyph unicode="f" horiz-adv-x="361" d="M12 460V320H351V460H12ZM331 620L397 744Q386 754 368 767T323 789T258 798Q196 798 155 777T94 719T73 630V0H238V584Q238 605 244 618T260 638T286 645Q299 645 310 639T331 620Z" />
<glyph unicode="g" horiz-adv-x="622" d="M41 -34Q48 -95 76 -142T160 -216T308 -242Q382 -242 440 -217T534 -137T569 10V460H404V10Q404 -28 391 -54T354 -93T299 -107Q275 -107 255 -100T223 -77T207 -34H41ZM31 238Q31 160 62 109T143 32T247 6Q305 6 350
33T421 112T448 238Q448 313 422 364T350 443T247 470Q193 470 144 445T63 368T31 238ZM213 238Q213 269 226 290T261 323T309 334Q326 334 343 329T374 311T396 281T404 238Q404 205 390 184T354 153T309 142Q283 142 261 153T226 186T213 238Z" />
<glyph unicode="h" horiz-adv-x="581" d="M228 780H55V0H228V780ZM354 280V0H527V306Q527 362 512 400T463 459T369 479Q309 479 273 452T219 380T202 280H228Q228 305 236 321T260 346T296 355Q330 355 342 336T354 280Z" />
<glyph unicode="i" horiz-adv-x="281" d="M43 627Q43 588 71 563T140 538Q181 538 209 563T238 627Q238 667 210 692T140 717Q100 717 72 692T43 627ZM57 460V0H223V460H57Z" />
<glyph unicode="j" horiz-adv-x="278" d="M40 627Q40 588 68 563T138 538Q179 538 207 563T235 627Q235 667 207 692T138 717Q97 717 69 692T40 627ZM-38 -66L-104 -190Q-91 -201 -74 -213T-29 -235T35 -244Q97 -244 138 -223T200 -163T221 -76V460H56V-30Q56
-51 51 -64T34 -85T8 -92Q-7 -92 -17 -85T-38 -66Z" />
<glyph unicode="k" horiz-adv-x="618" d="M54 780V0H219V780H54ZM385 460L189 270L409 0H609L394 270L589 460H385Z" />
<glyph unicode="l" horiz-adv-x="282" d="M55 780V0H228V780H55Z" />
<glyph unicode="m" horiz-adv-x="832" d="M778 298Q778 353 765 391T721 450T634 471Q587 471 550 452T486 398Q472 434 441 452T355 471Q306 471 273 450T220 391V460H55V0H220V280Q220 306 227 322T247 347T276 355Q303 355 314 336T326 280V0H499V280Q499 306
506 322T526 347T555 355Q582 355 593 336T605 280V0H778V298Z" />
<glyph unicode="n" horiz-adv-x="590" d="M354 280V0H535V298Q535 380 497 425T369 471Q316 471 282 450T228 392V460H55V0H228V280Q228 305 236 322T260 347T296 355Q330 355 342 336T354 280Z" />
<glyph unicode="o" horiz-adv-x="602" d="M31 230Q31 157 66 103T162 20T301 -10Q379 -10 440 19T536 103T572 230Q572 304 537 358T440 441T301 471Q224 471 163 442T66 358T31 230ZM209 230Q209 262 221 284T255 319T301 331Q326 331 347 319T381 285T394 230Q394
198 381 176T347 142T301 130Q276 130 255 141T222 175T209 230Z" />
<glyph unicode="p" horiz-adv-x="631" d="M227 -220V460H54V-220H227ZM600 230Q600 313 569 367T488 450T384 478Q323 478 280 447T214 361T191 230Q191 156 213 100T279 13T384 -18Q439 -18 488 10T568 93T600 230ZM418 230Q418 200 405 178T370 145T321 134Q298
134 277 144T241 176T227 230Q227 263 241 284T276 315T321 326Q348 326 370 315T405 283T418 230Z" />
<glyph unicode="q" horiz-adv-x="631" d="M404 -220H577V460H404V-220ZM31 230Q31 148 62 93T143 10T247 -18Q309 -18 352 13T417 100T440 230Q440 305 418 360T352 447T247 478Q193 478 144 450T63 368T31 230ZM213 230Q213 261 226 282T261 315T309 326Q332
326 354 316T390 284T404 230Q404 197 390 176T354 145T309 134Q283 134 261 145T226 178T213 230Z" />
<glyph unicode="r" horiz-adv-x="432" d="M224 460H55V0H224V460ZM355 283L427 432Q416 449 393 460T345 472Q305 472 269 447T210 378T188 280L224 211Q224 244 233 266T260 299T297 310Q317 310 330 303T355 283Z" />
<glyph unicode="s" horiz-adv-x="472" d="M81 175L18 57Q54 34 93 16T176 -12T271 -22Q357 -22 403 15T450 130Q450 173 432 199T384 241T319 271Q282 285 258 293T222 309T210 332Q210 342 218 349T246 356Q276 356 315 339T387 293L438 408Q407 426 375 439T308
461T231 470Q178 470 138 455T75 410T52 337Q52 292 70 264T119 219T182 191Q222 178 242 169T270 152T278 131Q278 117 269 109T241 101Q229 101 207 106T154 127T81 175Z" />
<glyph unicode="t" horiz-adv-x="341" d="M5 460V320H336V460H5ZM88 620V0H253V620H88Z" />
<glyph unicode="u" horiz-adv-x="590" d="M236 180V460H55V162Q55 80 93 35T221 -11Q273 -11 307 10T362 68V0H535V460H362V180Q362 155 354 138T330 113T293 105Q260 105 248 124T236 180Z" />
<glyph unicode="v" horiz-adv-x="553" d="M-4 460L276 -59L557 460H374L276 225L179 460H-4Z" />
<glyph unicode="w" horiz-adv-x="785" d="M-11 460L237 -27L392 228L548 -27L796 460H617L527 243L391 495L258 243L168 460H-11Z" />
<glyph unicode="x" horiz-adv-x="565" d="M364 460L286 351L209 460H10L195 236L0 0H199L286 122L374 0H565L373 236L555 460H364Z" />
<glyph unicode="y" horiz-adv-x="545" d="M557 460H382L234 89L325 88L176 460H-12L194 29L86 -220H257L557 460Z" />
<glyph unicode="z" horiz-adv-x="541" d="M244 304L15 0H490V156H313L526 460H61V304H244Z" />
<glyph unicode="{" horiz-adv-x="424" d="M291 595Q291 615 304 630T339 645H374V780H274Q227 780 187 766T123 721T98 640V462Q98 405 84 383T34 352V228Q69 221 83 198T98 118V-60Q98 -109 122 -140T187 -185T274 -200H374V-65H339Q317 -65 304 -50T291 -15V90Q291
123 288 160T270 228T225 280T138 300V280Q194 280 225 300T270 351T287 420T291 490V595Z" />
<glyph unicode="|" horiz-adv-x="376" d="M100 785V-215H276V785H100Z" />
<glyph unicode="}" horiz-adv-x="424" d="M135 -15Q135 -34 123 -49T87 -65H52V-200H152Q198 -200 238 -186T303 -140T328 -60V118Q328 175 343 198T392 228V352Q358 360 343 382T328 462V640Q328 690 304 720T239 765T152 780H52V645H87Q110 645 122 630T135
595V490Q135 457 138 420T155 352T201 300T288 280V300Q232 300 201 280T156 229T138 160T135 90V-15Z" />
<glyph unicode="~" horiz-adv-x="575" d="M161 160Q159 166 157 172T154 190Q154 204 162 218T193 233Q206 233 219 229T245 217T275 198Q313 174 342 161T402 148Q448 148 474 162T519 202Q538 226 544 252T550 306Q550 314 549 321T546 334L412 339Q415 332
417 323T420 304Q420 290 413 279T390 267Q377 267 360 277T319 302Q294 318 275 329T237 345T194 351Q139 351 109 334T58 291Q39 267 32 242T25 189Q25 176 28 165L161 160Z" />
<glyph unicode="&#xa0;" horiz-adv-x="300" />
<glyph unicode="&#xa1;" horiz-adv-x="356" d="M285 -225L249 235H108L72 -225H285ZM284 407Q284 449 255 475T178 502Q132 502 102 476T72 407Q72 365 102 339T178 312Q225 312 254 338T284 407Z" />
<glyph unicode="&#xa2;" horiz-adv-x="580" d="M224 38L211 -112H360L348 38H224ZM218 230Q218 262 234 285T276 322T331 336Q375 336 406 317T459 271V435Q435 451 399 460T315 470Q236 470 174 441T77 358T41 230Q41 157 76 103T174 20T315 -10Q362 -10 398
-1T459 25V189Q437 162 406 143T331 124Q302 124 277 136T235 171T218 230ZM211 578L224 428H348L360 578H211Z" />
<glyph unicode="&#xa3;" horiz-adv-x="620" d="M67 370V263H451V370H67ZM430 463L586 520Q584 553 566 586T514 648T435 693T329 710Q262 710 204 688T111 624T76 522Q76 488 86 464T112 422T144 385T170 346T181 297Q181 245 168 197T126 100T48 0H545V157H202L136
50Q164 58 199 78T268 128T324 195T346 272Q346 306 337 330T315 374T288 411T265 446T255 488Q255 514 266 530T296 553T337 561Q363 561 380 553T408 531T423 499T430 463Z" />
<glyph unicode="&#xa4;" horiz-adv-x="576" d="M19 503L121 402L186 467L85 569L19 503ZM85 31L186 133L121 198L19 97L85 31ZM455 402L557 503L491 569L389 467L455 402ZM389 133L491 31L557 97L455 198L389 133ZM50 300Q50 231 81 177T167 91T288 60Q356 60
409 91T494 176T526 300Q526 370 495 424T410 509T288 540Q221 540 167 509T82 424T50 300ZM204 300Q204 326 215 345T245 374T288 384Q313 384 332 374T362 345T373 300Q373 275 362 256T332 226T288 216Q264 216 245 226T215 255T204 300Z" />
<glyph unicode="&#xa5;" horiz-adv-x="695" d="M45 258H647V365H45V258ZM45 108H647V215H45V108ZM471 700L346 455L223 700H-1L248 279V0H447V282L694 700H471Z" />
<glyph unicode="&#xa6;" horiz-adv-x="376" d="M100 695V423H276V695H100ZM276 277H100V5H276V277Z" />
<glyph unicode="&#xa7;" horiz-adv-x="627" d="M427 540L501 656Q485 676 455 692T387 718T307 728Q261 728 216 711T141 661T111 575Q111 543 121 520T149 479T188 450T231 430Q257 420 286 410T336 383T357 339Q357 319 346 305T319 282T285 269V225Q327 225
367 234T439 263T491 312T510 380Q510 419 492 447T443 494T371 523Q351 529 333 532T302 539T282 549T274 563Q274 570 279 575T294 584T320 588Q335 588 354 582T392 565T427 540ZM137 177L63 62Q90 37 124 17T204 -14T308 -26Q345 -26 382 -17T449 11T497 60T516
130Q516 172 498 201T451 249T389 282Q370 290 347 296T302 311T267 333T253 369Q253 390 263 402T291 423T326 438V480Q283 480 242 471T166 442T112 394T92 327Q92 289 114 262T173 216T248 188Q276 182 297 176T331 162T344 141Q344 133 340 127T324 117T297
113Q281 113 255 119T198 139T137 177Z" />
<glyph unicode="&#xa8;" horiz-adv-x="523" d="M292 624Q292 584 320 559T390 534Q431 534 459 559T488 624Q488 664 460 688T390 713Q349 713 321 689T292 624ZM36 624Q36 584 64 559T133 534Q174 534 202 559T231 624Q231 664 203 688T133 713Q93 713 65 689T36 624Z" />
<glyph unicode="&#xa9;" horiz-adv-x="800" d="M304 350Q304 386 319 410T362 448T421 461Q465 461 494 445T543 407V530Q518 548 489 559T413 571Q343 571 290 544T206 466T176 350Q176 284 206 234T289 157T413 129Q459 129 488 140T543 170V293Q523 272 494
256T421 239Q389 239 362 252T320 290T304 350ZM95 350Q95 417 118 473T182 572T279 637T400 660Q465 660 520 637T617 572T682 474T705 350Q705 283 682 227T618 128T521 63T400 40Q335 40 280 63T183 128T118 226T95 350ZM40 350Q40 272 67 206T143 92T258 17T400
-10Q477 -10 542 16T656 91T732 206T760 350Q760 428 733 494T657 608T543 683T400 710Q324 710 258 684T144 609T68 494T40 350Z" />
<glyph unicode="&#xaa;" horiz-adv-x="280" d="M104 530Q104 541 113 548T139 556Q157 556 170 552T194 538V578Q186 587 164 593T116 600Q73 600 45 580T17 526Q17 493 40 474T102 455Q138 455 162 473T186 525L178 554Q178 528 164 519T132 509Q119 509 112
514T104 530ZM65 619Q73 624 94 631T140 638Q159 638 168 628T178 604V460H260V629Q260 666 228 685T148 705Q117 705 88 697T37 679L65 619Z" />
<glyph unicode="&#xab;" horiz-adv-x="550" d="M371 259L521 445L414 514L240 255L414 -4L521 65L371 259ZM154 259L304 445L198 514L24 255L198 -4L304 65L154 259Z" />
<glyph unicode="&#xac;" horiz-adv-x="660" d="M65 264H479V175H595V411H65V264Z" />
<glyph unicode="&#xad;" horiz-adv-x="210" d="M5 200H205V275H5V200Z" />
<glyph unicode="&#xae;" horiz-adv-x="800" d="M385 319L463 150H599L489 319H385ZM247 570V150H364V570H247ZM321 472L403 473Q431 473 446 463T461 429Q461 407 446 397T403 386H321V297H412Q498 297 540 336T582 438Q582 493 540 531T412 570H321V472ZM95 350Q95
417 118 473T182 572T279 637T400 660Q465 660 520 637T617 572T682 474T705 350Q705 283 682 227T618 128T521 63T400 40Q335 40 280 63T183 128T118 226T95 350ZM40 350Q40 272 67 206T143 92T258 17T400 -10Q477 -10 542 16T656 91T732 206T760 350Q760 428
733 494T657 608T543 683T400 710Q324 710 258 684T144 609T68 494T40 350Z" />
<glyph unicode="&#xaf;" horiz-adv-x="538" d="M80 564H458V711H80V564Z" />
<glyph unicode="&#xb0;" horiz-adv-x="302" d="M16 596Q16 542 54 507T150 472Q209 472 247 507T286 596Q286 651 248 685T150 720Q92 720 54 686T16 596ZM100 596Q100 620 114 634T150 648Q172 648 186 634T201 596Q201 572 187 559T150 545Q128 545 114 558T100 596Z" />
<glyph unicode="&#xb1;" horiz-adv-x="639" d="M65 8H574V153H65V8ZM65 329H574V481H65V329ZM233 620V190H406V620H233Z" />
<glyph unicode="&#xb2;" horiz-adv-x="427" d="M25 282H398V388H237L324 461Q353 484 369 512T386 573Q386 608 367 639T311 691T220 711Q163 711 124 688T64 627T44 543H158Q158 574 174 593T216 613Q234 613 245 606T261 589T266 566Q266 541 251 520T209 471L25 282Z" />
<glyph unicode="&#xb3;" horiz-adv-x="381" d="M158 482Q211 482 254 493T322 529T348 591Q348 640 308 674T191 708Q120 708 77 669T33 572H140Q140 593 154 605T190 617Q213 617 223 608T233 583Q233 570 224 558T197 539T158 531V482ZM186 269Q269 269 314
305T360 396Q360 439 335 465T264 504T158 517V460Q190 460 209 453T236 434T245 407Q245 382 230 372T190 361Q167 361 149 374T130 420H15Q15 382 35 347T94 291T186 269Z" />
<glyph unicode="&#xb4;" horiz-adv-x="375" d="M324 652L197 708L47 548L144 502L324 652Z" />
<glyph unicode="&#xb5;" horiz-adv-x="590" d="M236 460H55V-320H220V18Q239 5 253 2T282 -2Q309 -2 329 13T362 50V0H535V460H362V212Q362 187 354 171T330 146T293 137Q260 137 248 156T236 212V460Z" />
<glyph unicode="&#xb6;" horiz-adv-x="699" d="M288 270V-220H439V599H488V-220H639V700H288Q226 700 174 675T91 603T60 485Q60 416 91 368T174 295T288 270Z" />
<glyph unicode="&#xb7;" horiz-adv-x="329" d="M59 276Q59 234 88 204T165 173Q212 173 241 203T270 276Q270 319 241 349T165 380Q118 380 89 350T59 276Z" />
<glyph unicode="&#xb8;" horiz-adv-x="406" d="M180 75L92 -128Q121 -117 147 -115T181 -113Q204 -113 224 -118T245 -144Q245 -162 230 -169T189 -177Q176 -177 150 -172T104 -152L55 -229Q94 -251 131 -259T215 -268Q248 -268 279 -256T332 -218T353 -155Q353
-120 338 -97T300 -62T256 -50Q244 -50 233 -51T212 -55L305 70L180 75Z" />
<glyph unicode="&#xb9;" horiz-adv-x="486" d="M128 561L235 587V274H347V702L128 660V561Z" />
<glyph unicode="&#xba;" horiz-adv-x="278" d="M18 580Q18 526 56 493T153 460Q211 460 250 493T289 580Q289 635 250 667T153 700Q94 700 56 668T18 580ZM107 580Q107 604 120 617T153 631Q171 631 185 618T199 580Q199 556 185 543T153 530Q134 530 121 543T107 580Z" />
<glyph unicode="&#xbb;" horiz-adv-x="550" d="M180 251L30 65L136 -4L310 255L136 514L30 445L180 251ZM396 251L246 65L353 -4L526 255L353 514L246 445L396 251Z" />
<glyph unicode="&#xbc;" horiz-adv-x="843" d="M634 700L114 0H219L739 700H634ZM22 561L129 587V274H241V702L22 660V561ZM409 72H814V170H701L691 153H505L409 72ZM526 111L641 263V100L627 94V0H748V420H657L409 72L526 111Z" />
<glyph unicode="&#xbd;" horiz-adv-x="916" d="M634 700L114 0H219L739 700H634ZM22 561L129 587V274H241V702L22 660V561ZM509 2H883V108H721L808 181Q837 204 853 232T870 293Q870 328 851 359T795 411T704 431Q647 431 608 408T548 347T528 263H642Q642 294
658 313T700 333Q718 333 729 326T745 309T750 286Q750 261 735 240T693 191L509 2Z" />
<glyph unicode="&#xbe;" horiz-adv-x="897" d="M697 700L177 0H282L802 700H697ZM167 482Q220 482 263 493T331 529T357 591Q357 640 317 674T200 708Q129 708 86 669T42 572H149Q149 593 163 605T199 617Q222 617 232 608T242 583Q242 570 233 558T206 539T167
531V482ZM195 269Q278 269 323 305T369 396Q369 439 344 465T273 504T167 517V460Q199 460 218 453T245 434T254 407Q254 382 239 372T200 361Q176 361 158 374T139 420H24Q24 382 44 347T103 291T195 269ZM464 72H869V170H756L746 153H559L464 72ZM581 111L696
263V100L682 94V0H803V420H712L464 72L581 111Z" />
<glyph unicode="&#xbf;" horiz-adv-x="647" d="M226 200Q226 222 244 247T300 292T398 311H432L412 490H271L267 416Q215 406 165 379T84 308T52 200Q52 146 74 105T135 36T221 -7T318 -22Q378 -22 428 -7T521 39T604 112L490 209Q461 166 417 144T328 121Q295
121 273 130T238 158T226 200ZM447 636Q447 673 418 700T341 727Q295 727 265 700T235 636Q235 599 265 572T341 544Q388 544 417 571T447 636Z" />
<glyph unicode="&#xc0;" horiz-adv-x="757" d="M195 113H565L560 256H201L195 113ZM378 413L471 203L460 153L540 0H760L378 747L-3 0H217L298 160L286 203L378 413ZM208 957L388 807L486 853L336 1013L208 957Z" />
<glyph unicode="&#xc1;" horiz-adv-x="757" d="M195 113H565L560 256H201L195 113ZM378 413L471 203L460 153L540 0H760L378 747L-3 0H217L298 160L286 203L378 413ZM545 957L417 1013L267 853L365 807L545 957Z" />
<glyph unicode="&#xc2;" horiz-adv-x="757" d="M195 113H565L560 256H201L195 113ZM378 413L471 203L460 153L540 0H760L378 747L-3 0H217L298 160L286 203L378 413ZM378 882L464 799L587 880L378 1020L170 880L293 799L378 882Z" />
<glyph unicode="&#xc3;" horiz-adv-x="757" d="M195 113H565L560 256H201L195 113ZM378 413L471 203L460 153L540 0H760L378 747L-3 0H217L298 160L286 203L378 413ZM173 877L250 808Q250 816 253 828T267 849T296 859Q322 859 344 845T390 818T441 804Q475 804
504 818T554 854T584 893L505 977Q490 953 474 938T437 922Q416 922 401 930T371 948T340 967T297 976Q263 976 237 961T194 924T173 877Z" />
<glyph unicode="&#xc4;" horiz-adv-x="757" d="M195 113H565L560 256H201L195 113ZM378 413L471 203L460 153L540 0H760L378 747L-3 0H217L298 160L286 203L378 413ZM433 824Q433 784 461 759T531 734Q572 734 600 759T629 824Q629 864 601 889T531 914Q490 914
462 889T433 824ZM120 832Q120 792 148 768T218 743Q259 743 287 767T316 832Q316 872 288 897T218 922Q177 922 149 897T120 832Z" />
<glyph unicode="&#xc5;" horiz-adv-x="757" d="M195 113H565L560 256H201L195 113ZM378 413L471 203L460 153L540 0H760L378 747L-3 0H217L298 160L286 203L378 413ZM247 801Q247 748 284 715T378 681Q434 681 472 714T510 801Q510 855 472 888T378 921Q322 921
285 888T247 801ZM333 801Q333 823 346 835T378 848Q397 848 410 836T423 801Q423 779 410 767T378 755Q359 755 346 767T333 801Z" />
<glyph unicode="&#xc6;" horiz-adv-x="1121" d="M286 133H594V310H294L286 133ZM439 700L17 0H265L629 660L439 700ZM658 0H1051V157H658V0ZM666 543H1051V700H439L666 543ZM658 288H1031V440H658V288ZM567 700V0H777V700H567Z" />
<glyph unicode="&#xc7;" horiz-adv-x="705" d="M245 350Q245 409 271 450T342 513T439 535Q489 535 526 522T592 489T643 445V649Q602 680 553 699T426 718Q339 718 266 692T141 617T61 501T32 350Q32 267 60 200T141 83T266 8T426 -18Q503 -18 552 1T643 51V255Q621
232 592 212T526 178T439 165Q386 165 342 186T272 249T245 350ZM352 45L263 -157Q292 -146 319 -144T353 -142Q376 -142 396 -147T417 -173Q417 -191 402 -199T361 -207Q348 -207 322 -201T276 -181L226 -258Q266 -281 303 -289T387 -298Q420 -298 451 -285T504
-247T525 -184Q525 -149 510 -126T472 -91T428 -80Q415 -80 405 -80T383 -84L476 40L352 45Z" />
<glyph unicode="&#xc8;" horiz-adv-x="619" d="M204 0H557V157H204V0ZM204 543H557V700H204V543ZM204 288H537V440H204V288ZM72 700V0H258V700H72ZM144 936L324 786L421 832L271 992L144 936Z" />
<glyph unicode="&#xc9;" horiz-adv-x="619" d="M204 0H557V157H204V0ZM204 543H557V700H204V543ZM204 288H537V440H204V288ZM72 700V0H258V700H72ZM481 936L354 992L204 832L301 786L481 936Z" />
<glyph unicode="&#xca;" horiz-adv-x="619" d="M204 0H557V157H204V0ZM204 543H557V700H204V543ZM204 288H537V440H204V288ZM72 700V0H258V700H72ZM316 861L402 778L524 858L316 998L107 858L230 778L316 861Z" />
<glyph unicode="&#xcb;" horiz-adv-x="619" d="M204 0H557V157H204V0ZM204 543H557V700H204V543ZM204 288H537V440H204V288ZM72 700V0H258V700H72ZM347 872Q347 832 375 807T445 782Q486 782 514 807T543 872Q543 912 515 936T445 961Q404 961 376 937T347 872ZM91
872Q91 832 119 807T188 782Q229 782 257 807T286 872Q286 912 258 936T188 961Q148 961 120 937T91 872Z" />
<glyph unicode="&#xcc;" horiz-adv-x="342" d="M72 700V0H270V700H72ZM-8 936L172 786L270 832L120 992L-8 936Z" />
<glyph unicode="&#xcd;" horiz-adv-x="342" d="M72 700V0H270V700H72ZM329 936L202 992L52 832L149 786L329 936Z" />
<glyph unicode="&#xce;" horiz-adv-x="342" d="M72 700V0H270V700H72ZM171 861L257 778L380 858L171 998L-37 858L85 778L171 861Z" />
<glyph unicode="&#xcf;" horiz-adv-x="342" d="M72 700V0H270V700H72ZM202 868Q202 828 230 803T299 778Q340 778 368 803T397 868Q397 908 369 932T299 957Q259 957 231 933T202 868ZM-55 868Q-55 828 -27 803T43 778Q84 778 112 803T141 868Q141 908 113 932T43
957Q2 957 -26 933T-55 868Z" />
<glyph unicode="&#xd0;" horiz-adv-x="749" d="M6 300H370V408H6V300ZM72 700V0H273V700H72ZM334 0Q453 0 538 42T670 163T717 350Q717 459 671 537T539 657T334 700H204V530H326Q361 530 394 523T455 496T498 441T515 350Q515 295 499 260T455 205T395 178T326
170H204V0H334Z" />
<glyph unicode="&#xd1;" horiz-adv-x="799" d="M541 700V344L72 735V0H258V356L727 -35V700H541ZM159 845L236 776Q236 784 239 796T253 817T282 827Q307 827 329 813T376 786T427 772Q460 772 489 786T540 822T569 861L491 944Q476 920 460 905T423 890Q401 890
386 898T357 916T325 935T283 943Q249 943 223 929T180 892T159 845Z" />
<glyph unicode="&#xd2;" horiz-adv-x="830" d="M237 350Q237 407 259 450T321 517T415 542Q472 542 511 518T572 450T593 350Q593 294 571 251T510 183T415 158Q361 158 321 182T259 250T237 350ZM32 350Q32 268 60 199T139 80T261 2T415 -26Q499 -26 569 1T691
79T770 199T798 350Q798 433 770 500T689 616T568 691T415 718Q334 718 265 692T143 617T62 501T32 350ZM259 936L439 786L536 832L386 992L259 936Z" />
<glyph unicode="&#xd3;" horiz-adv-x="830" d="M237 350Q237 407 259 450T321 517T415 542Q472 542 511 518T572 450T593 350Q593 294 571 251T510 183T415 158Q361 158 321 182T259 250T237 350ZM32 350Q32 268 60 199T139 80T261 2T415 -26Q499 -26 569 1T691
79T770 199T798 350Q798 433 770 500T689 616T568 691T415 718Q334 718 265 692T143 617T62 501T32 350ZM592 936L464 992L314 832L412 786L592 936Z" />
<glyph unicode="&#xd4;" horiz-adv-x="830" d="M237 350Q237 407 259 450T321 517T415 542Q472 542 511 518T572 450T593 350Q593 294 571 251T510 183T415 158Q361 158 321 182T259 250T237 350ZM32 350Q32 268 60 199T139 80T261 2T415 -26Q499 -26 569 1T691
79T770 199T798 350Q798 433 770 500T689 616T568 691T415 718Q334 718 265 692T143 617T62 501T32 350ZM427 861L513 778L636 858L427 998L219 858L341 778L427 861Z" />
<glyph unicode="&#xd5;" horiz-adv-x="830" d="M237 350Q237 407 259 450T321 517T415 542Q472 542 511 518T572 450T593 350Q593 294 571 251T510 183T415 158Q361 158 321 182T259 250T237 350ZM32 350Q32 268 60 199T139 80T261 2T415 -26Q499 -26 569 1T691
79T770 199T798 350Q798 433 770 500T689 616T568 691T415 718Q334 718 265 692T143 617T62 501T32 350ZM218 848L295 779Q295 787 298 799T312 820T341 830Q366 830 389 816T435 789T486 775Q519 775 548 789T599 825T629 864L550 947Q535 923 519 908T482 893Q461
893 446 901T416 919T385 938T342 946Q308 946 282 932T239 895T218 848Z" />
<glyph unicode="&#xd6;" horiz-adv-x="830" d="M237 350Q237 407 259 450T321 517T415 542Q472 542 511 518T572 450T593 350Q593 294 571 251T510 183T415 158Q361 158 321 182T259 250T237 350ZM32 350Q32 268 60 199T139 80T261 2T415 -26Q499 -26 569 1T691
79T770 199T798 350Q798 433 770 500T689 616T568 691T415 718Q334 718 265 692T143 617T62 501T32 350ZM446 868Q446 828 474 803T543 778Q584 778 612 803T641 868Q641 908 613 932T543 957Q503 957 475 933T446 868ZM189 868Q189 828 217 803T287 778Q328 778
356 803T385 868Q385 908 357 932T287 957Q246 957 218 933T189 868Z" />
<glyph unicode="&#xd7;" horiz-adv-x="596" d="M145 -2L298 155L451 -2L555 102L398 255L555 408L451 512L298 355L145 512L41 408L198 255L41 102L145 -2Z" />
<glyph unicode="&#xd8;" horiz-adv-x="790" d="M237 350Q237 409 259 452T321 518T415 542Q470 542 509 519T571 452T593 350Q593 291 571 248T510 182T415 158Q361 158 321 181T259 248T237 350ZM32 350Q32 268 60 199T141 80T263 2T415 -26Q498 -26 567 1T689
79T769 199T798 350Q798 433 770 500T689 616T568 691T415 718Q333 718 263 692T141 617T61 501T32 350ZM700 758L52 -2L126 -58L775 702L700 758Z" />
<glyph unicode="&#xd9;" horiz-adv-x="723" d="M67 700V230Q67 159 90 109T153 28T247 -19T361 -34Q422 -34 475 -19T569 27T633 109T656 230V700H462V246Q462 198 437 169T361 139Q311 139 286 168T261 246V700H67ZM191 928L371 778L469 824L319 984L191 928Z" />
<glyph unicode="&#xda;" horiz-adv-x="723" d="M67 700V230Q67 159 90 109T153 28T247 -19T361 -34Q422 -34 475 -19T569 27T633 109T656 230V700H462V246Q462 198 437 169T361 139Q311 139 286 168T261 246V700H67ZM532 928L404 984L254 824L352 778L532 928Z" />
<glyph unicode="&#xdb;" horiz-adv-x="723" d="M67 700V230Q67 159 90 109T153 28T247 -19T361 -34Q422 -34 475 -19T569 27T633 109T656 230V700H462V246Q462 198 437 169T361 139Q311 139 286 168T261 246V700H67ZM361 861L447 778L570 858L361 998L153 858L276
778L361 861Z" />
<glyph unicode="&#xdc;" horiz-adv-x="723" d="M67 700V230Q67 159 90 109T153 28T247 -19T361 -34Q422 -34 475 -19T569 27T633 109T656 230V700H462V246Q462 198 437 169T361 139Q311 139 286 168T261 246V700H67ZM416 868Q416 828 444 803T514 778Q555 778
583 803T612 868Q612 908 584 932T514 957Q473 957 445 933T416 868ZM111 868Q111 828 139 803T209 778Q250 778 278 803T307 868Q307 908 279 932T209 957Q168 957 140 933T111 868Z" />
<glyph unicode="&#xdd;" horiz-adv-x="689" d="M515 928L388 984L238 824L335 778L515 928ZM468 700L345 455L221 700H-3L246 278V0H444V280L692 700H468Z" />
<glyph unicode="&#xde;" horiz-adv-x="631" d="M80 700V0H246V700H80ZM188 436H322Q359 436 384 428T422 403T435 354Q435 323 422 306T384 280T322 272H188V124H322Q419 124 481 151T574 230T605 354Q605 427 574 478T481 557T322 584H188V436Z" />
<glyph unicode="&#xdf;" horiz-adv-x="614" d="M382 -12Q427 -12 470 4T548 48T603 115T623 197Q623 233 613 257T586 299T551 328T516 351T489 373T478 400Q478 416 486 430T507 459T531 494T551 539T559 602Q559 664 524 708T431 775T301 798Q217 798 159 768T69
680T38 536L39 -2H212L210 540Q210 576 220 599T250 633T298 644Q323 644 341 636T370 610T380 566Q380 541 372 521T351 484T327 451T307 419T298 382Q298 360 308 344T335 316T371 292T406 268T433 239T444 198Q444 177 434 160T406 134T364 124Q349 124 332
127T299 137T268 152L243 20Q260 11 283 4T331 -8T382 -12Z" />
<glyph unicode="&#xe0;" horiz-adv-x="562" d="M196 138Q196 153 204 164T229 182T266 189Q304 189 329 180T378 153V231Q367 243 343 253T286 270T222 277Q163 277 118 259T47 208T22 129Q22 85 43 54T102 7T192 -10Q240 -10 278 6T338 54T361 130L345 188Q345
153 332 134T298 106T252 97Q237 97 224 101T203 115T196 138ZM119 308Q130 315 153 323T205 339T268 346Q306 346 325 329T345 283V0H510V322Q510 371 481 405T400 456T284 474Q222 474 165 458T64 422L119 308ZM108 684L288 534L386 580L236 740L108 684Z" />
<glyph unicode="&#xe1;" horiz-adv-x="562" d="M196 138Q196 153 204 164T229 182T266 189Q304 189 329 180T378 153V231Q367 243 343 253T286 270T222 277Q163 277 118 259T47 208T22 129Q22 85 43 54T102 7T192 -10Q240 -10 278 6T338 54T361 130L345 188Q345
153 332 134T298 106T252 97Q237 97 224 101T203 115T196 138ZM119 308Q130 315 153 323T205 339T268 346Q306 346 325 329T345 283V0H510V322Q510 371 481 405T400 456T284 474Q222 474 165 458T64 422L119 308ZM460 684L333 740L183 580L280 534L460 684Z" />
<glyph unicode="&#xe2;" horiz-adv-x="562" d="M196 138Q196 153 204 164T229 182T266 189Q304 189 329 180T378 153V231Q367 243 343 253T286 270T222 277Q163 277 118 259T47 208T22 129Q22 85 43 54T102 7T192 -10Q240 -10 278 6T338 54T361 130L345 188Q345
153 332 134T298 106T252 97Q237 97 224 101T203 115T196 138ZM119 308Q130 315 153 323T205 339T268 346Q306 346 325 329T345 283V0H510V322Q510 371 481 405T400 456T284 474Q222 474 165 458T64 422L119 308ZM284 617L370 534L493 614L284 754L76 614L199 534L284
617Z" />
<glyph unicode="&#xe3;" horiz-adv-x="562" d="M196 138Q196 153 204 164T229 182T266 189Q304 189 329 180T378 153V231Q367 243 343 253T286 270T222 277Q163 277 118 259T47 208T22 129Q22 85 43 54T102 7T192 -10Q240 -10 278 6T338 54T361 130L345 188Q345
153 332 134T298 106T252 97Q237 97 224 101T203 115T196 138ZM119 308Q130 315 153 323T205 339T268 346Q306 346 325 329T345 283V0H510V322Q510 371 481 405T400 456T284 474Q222 474 165 458T64 422L119 308ZM79 608L156 539Q156 547 159 559T173 580T202 590Q228
590 250 576T296 549T347 535Q380 535 409 549T460 585T490 624L411 707Q396 683 380 668T343 653Q322 653 307 661T277 679T246 698T203 706Q169 706 143 692T100 655T79 608Z" />
<glyph unicode="&#xe4;" horiz-adv-x="562" d="M196 138Q196 153 204 164T229 182T266 189Q304 189 329 180T378 153V231Q367 243 343 253T286 270T222 277Q163 277 118 259T47 208T22 129Q22 85 43 54T102 7T192 -10Q240 -10 278 6T338 54T361 130L345 188Q345
153 332 134T298 106T252 97Q237 97 224 101T203 115T196 138ZM119 308Q130 315 153 323T205 339T268 346Q306 346 325 329T345 283V0H510V322Q510 371 481 405T400 456T284 474Q222 474 165 458T64 422L119 308ZM315 624Q315 584 343 559T413 534Q453 534 481
559T510 624Q510 664 482 688T413 713Q372 713 344 689T315 624ZM58 624Q58 584 87 559T156 534Q197 534 225 559T254 624Q254 664 226 688T156 713Q116 713 87 689T58 624Z" />
<glyph unicode="&#xe5;" horiz-adv-x="562" d="M196 138Q196 153 204 164T229 182T266 189Q304 189 329 180T378 153V231Q367 243 343 253T286 270T222 277Q163 277 118 259T47 208T22 129Q22 85 43 54T102 7T192 -10Q240 -10 278 6T338 54T361 130L345 188Q345
153 332 134T298 106T252 97Q237 97 224 101T203 115T196 138ZM119 308Q130 315 153 323T205 339T268 346Q306 346 325 329T345 283V0H510V322Q510 371 481 405T400 456T284 474Q222 474 165 458T64 422L119 308ZM152 654Q152 601 190 568T284 534Q339 534 377
567T416 654Q416 708 378 741T284 774Q228 774 190 741T152 654ZM239 654Q239 676 252 688T284 701Q303 701 316 689T329 654Q329 632 316 620T284 608Q265 608 252 620T239 654Z" />
<glyph unicode="&#xe6;" horiz-adv-x="917" d="M220 -10Q305 -10 360 19T434 100L422 101Q447 45 498 18T632 -10Q724 -10 786 24T887 131L731 162Q718 137 689 123T625 109Q596 109 576 120T545 154T532 212L512 194H881Q882 199 882 212T883 238Q883 312 856
364T778 443T652 470Q603 470 562 458T488 421T434 361H447Q440 419 400 446T284 474Q233 474 180 461T64 422L119 308Q138 319 164 327T218 341T268 346Q306 346 325 329T345 277V222H424Q356 253 311 265T222 277Q162 277 117 259T47 207T22 129Q22 63 74 27T220
-10ZM252 97Q223 97 210 107T196 138Q196 164 213 176T266 189Q294 189 320 182T370 160L344 187L349 139L348 184Q346 142 322 120T252 97ZM531 235Q531 276 541 303T572 345T621 360Q647 360 664 349T690 318T700 266Q700 262 700 260T698 250L721 283H512L531
235Z" />
<glyph unicode="&#xe7;" horiz-adv-x="498" d="M208 230Q208 260 223 284T264 322T320 336Q341 336 365 330T411 309T448 273V435Q424 449 391 459T304 470Q225 470 163 441T66 358T30 230Q30 157 65 103T163 20T304 -10Q358 -10 391 0T448 26V188Q434 167 414
153T369 131T320 124Q290 124 264 136T223 173T208 230ZM231 61L143 -141Q172 -130 198 -128T232 -126Q255 -126 275 -131T296 -157Q296 -175 281 -182T240 -190Q227 -190 202 -185T155 -165L106 -242Q146 -265 183 -273T266 -282Q299 -282 330 -269T383 -231T405
-168Q405 -133 390 -110T352 -75T308 -63Q295 -63 284 -64T263 -68L356 57L231 61Z" />
<glyph unicode="&#xe8;" horiz-adv-x="591" d="M126 194H555Q557 208 557 220T557 238Q557 311 528 362T442 442T299 470Q220 470 165 446T77 379T35 279Q33 267 32 255T31 230Q31 161 62 107T154 21T305 -10Q374 -10 422 7T504 56T561 131L405 162Q395 145 380
134T345 116T299 109Q274 109 253 120T218 158T205 230L207 252Q207 287 217 311T247 347T295 360Q319 360 335 351T360 325T372 283H126V194ZM127 683L307 533L404 579L254 739L127 683Z" />
<glyph unicode="&#xe9;" horiz-adv-x="591" d="M126 194H555Q557 208 557 220T557 238Q557 311 528 362T442 442T299 470Q220 470 165 446T77 379T35 279Q33 267 32 255T31 230Q31 161 62 107T154 21T305 -10Q374 -10 422 7T504 56T561 131L405 162Q395 145 380
134T345 116T299 109Q274 109 253 120T218 158T205 230L207 252Q207 287 217 311T247 347T295 360Q319 360 335 351T360 325T372 283H126V194ZM475 683L348 739L198 579L295 533L475 683Z" />
<glyph unicode="&#xea;" horiz-adv-x="591" d="M126 194H555Q557 208 557 220T557 238Q557 311 528 362T442 442T299 470Q220 470 165 446T77 379T35 279Q33 267 32 255T31 230Q31 161 62 107T154 21T305 -10Q374 -10 422 7T504 56T561 131L405 162Q395 145 380
134T345 116T299 109Q274 109 253 120T218 158T205 230L207 252Q207 287 217 311T247 347T295 360Q319 360 335 351T360 325T372 283H126V194ZM299 614L385 531L508 611L299 751L91 611L214 531L299 614Z" />
<glyph unicode="&#xeb;" horiz-adv-x="591" d="M126 194H555Q557 208 557 220T557 238Q557 311 528 362T442 442T299 470Q220 470 165 446T77 379T35 279Q33 267 32 255T31 230Q31 161 62 107T154 21T305 -10Q374 -10 422 7T504 56T561 131L405 162Q395 145 380
134T345 116T299 109Q274 109 253 120T218 158T205 230L207 252Q207 287 217 311T247 347T295 360Q319 360 335 351T360 325T372 283H126V194ZM330 621Q330 581 358 556T428 531Q468 531 496 556T525 621Q525 660 497 685T428 710Q387 710 359 685T330 621ZM73
621Q73 581 102 556T171 531Q212 531 240 556T269 621Q269 660 241 685T171 710Q131 710 102 685T73 621Z" />
<glyph unicode="&#xec;" horiz-adv-x="281" d="M57 460V0H223V460H57ZM-46 685L134 535L231 581L81 741L-46 685Z" />
<glyph unicode="&#xed;" horiz-adv-x="281" d="M57 460V0H223V460H57ZM316 685L188 741L38 581L136 535L316 685Z" />
<glyph unicode="&#xee;" horiz-adv-x="281" d="M57 460V0H223V460H57ZM140 616L225 533L348 613L140 753L-69 613L54 533L140 616Z" />
<glyph unicode="&#xef;" horiz-adv-x="281" d="M57 460V0H223V460H57ZM171 626Q171 587 199 562T269 537Q309 537 338 562T367 626Q367 666 338 691T269 716Q228 716 200 691T171 626ZM-86 626Q-86 587 -57 562T12 537Q53 537 81 562T110 626Q110 666 82 691T12
716Q-28 716 -57 691T-86 626Z" />
<glyph unicode="&#xf0;" horiz-adv-x="641" d="M317 -18Q396 -18 458 17T556 113T592 250Q592 295 579 343T538 443T471 548T378 658T260 771L129 690Q182 653 229 612T316 527T391 434T454 333L496 331Q401 478 262 478Q199 478 151 450T77 370T50 250Q50 172
84 111T178 16T317 -18ZM320 130Q293 130 272 143T240 178T228 230Q228 259 240 282T273 318T320 331Q348 331 368 318T401 282T413 230Q413 201 402 179T369 143T320 130ZM148 508L517 621L501 679L132 565L148 508Z" />
<glyph unicode="&#xf1;" horiz-adv-x="590" d="M228 460H55V0H228V460ZM354 280V0H535V298Q535 381 497 426T369 471Q309 471 272 444T218 372T200 272L228 280Q228 305 236 321T260 346T296 355Q330 355 342 336T354 280ZM90 605L166 536Q166 544 170 556T184
577T213 587Q239 587 261 573T307 546T358 532Q391 532 420 546T471 582T501 621L422 704Q407 680 391 665T353 650Q332 650 317 658T287 676T256 695T213 703Q179 703 153 689T111 652T90 605Z" />
<glyph unicode="&#xf2;" horiz-adv-x="602" d="M31 230Q31 157 66 103T162 20T301 -10Q379 -10 440 19T536 103T572 230Q572 304 537 358T440 441T301 471Q224 471 163 442T66 358T31 230ZM209 230Q209 262 221 284T255 319T301 331Q326 331 347 319T381 285T394
230Q394 198 381 176T347 142T301 130Q276 130 255 141T222 175T209 230ZM141 685L321 535L419 581L269 741L141 685Z" />
<glyph unicode="&#xf3;" horiz-adv-x="602" d="M31 230Q31 157 66 103T162 20T301 -10Q379 -10 440 19T536 103T572 230Q572 304 537 358T440 441T301 471Q224 471 163 442T66 358T31 230ZM209 230Q209 262 221 284T255 319T301 331Q326 331 347 319T381 285T394
230Q394 198 381 176T347 142T301 130Q276 130 255 141T222 175T209 230ZM461 685L334 741L184 581L281 535L461 685Z" />
<glyph unicode="&#xf4;" horiz-adv-x="602" d="M31 230Q31 157 66 103T162 20T301 -10Q379 -10 440 19T536 103T572 230Q572 304 537 358T440 441T301 471Q224 471 163 442T66 358T31 230ZM209 230Q209 262 221 284T255 319T301 331Q326 331 347 319T381 285T394
230Q394 198 381 176T347 142T301 130Q276 130 255 141T222 175T209 230ZM301 618L387 535L510 615L301 755L93 615L215 535L301 618Z" />
<glyph unicode="&#xf5;" horiz-adv-x="602" d="M31 230Q31 157 66 103T162 20T301 -10Q379 -10 440 19T536 103T572 230Q572 304 537 358T440 441T301 471Q224 471 163 442T66 358T31 230ZM209 230Q209 262 221 284T255 319T301 331Q326 331 347 319T381 285T394
230Q394 198 381 176T347 142T301 130Q276 130 255 141T222 175T209 230ZM96 605L173 536Q173 544 176 556T190 577T219 587Q244 587 267 573T313 546T364 532Q397 532 426 546T477 582T507 621L428 704Q413 680 397 665T360 650Q339 650 324 658T294 676T263 695T220
703Q186 703 160 689T117 652T96 605Z" />
<glyph unicode="&#xf6;" horiz-adv-x="602" d="M31 230Q31 157 66 103T162 20T301 -10Q379 -10 440 19T536 103T572 230Q572 304 537 358T440 441T301 471Q224 471 163 442T66 358T31 230ZM209 230Q209 262 221 284T255 319T301 331Q326 331 347 319T381 285T394
230Q394 198 381 176T347 142T301 130Q276 130 255 141T222 175T209 230ZM332 626Q332 587 360 562T429 537Q470 537 498 562T527 626Q527 666 499 691T429 716Q389 716 361 691T332 626ZM75 626Q75 587 103 562T173 537Q214 537 242 562T271 626Q271 666 243 691T173
716Q132 716 104 691T75 626Z" />
<glyph unicode="&#xf7;" horiz-adv-x="645" d="M216 583Q216 541 246 511T322 480Q369 480 398 510T428 583Q428 626 399 656T322 687Q276 687 246 657T216 583ZM216 106Q216 64 246 34T322 3Q369 3 398 33T428 106Q428 149 399 179T322 210Q276 210 246 180T216
106ZM16 269H629V422H16V269Z" />
<glyph unicode="&#xf8;" d="M31 230Q31 153 67 100T164 18T301 -10Q377 -10 438 18T536 99T572 230Q572 308 536 361T439 442T301 470Q225 470 164 442T67 361T31 230ZM193 230Q193 262 208 286T247 325T301 339Q330 339 354 325T394 287T410 230Q410 194 395
170T355 134T301 121Q272 121 248 133T208 170T193 230ZM460 508L70 -16L131 -52L521 472L460 508Z" />
<glyph unicode="&#xf9;" horiz-adv-x="590" d="M362 0H535V460H362V0ZM236 180V460H55V162Q55 79 93 34T221 -11Q281 -11 318 16T372 88T390 188L362 180Q362 155 354 139T330 114T293 105Q260 105 248 124T236 180ZM142 685L322 535L420 581L270 741L142 685Z" />
<glyph unicode="&#xfa;" horiz-adv-x="590" d="M362 0H535V460H362V0ZM236 180V460H55V162Q55 79 93 34T221 -11Q281 -11 318 16T372 88T390 188L362 180Q362 155 354 139T330 114T293 105Q260 105 248 124T236 180ZM447 685L319 741L169 581L267 535L447 685Z" />
<glyph unicode="&#xfb;" horiz-adv-x="590" d="M362 0H535V460H362V0ZM236 180V460H55V162Q55 79 93 34T221 -11Q281 -11 318 16T372 88T390 188L362 180Q362 155 354 139T330 114T293 105Q260 105 248 124T236 180ZM294 618L380 535L503 615L294 755L86 615L208
535L294 618Z" />
<glyph unicode="&#xfc;" horiz-adv-x="590" d="M362 0H535V460H362V0ZM236 180V460H55V162Q55 79 93 34T221 -11Q281 -11 318 16T372 88T390 188L362 180Q362 155 354 139T330 114T293 105Q260 105 248 124T236 180ZM326 624Q326 585 354 560T423 535Q464 535
492 560T521 624Q521 664 493 689T423 714Q383 714 355 689T326 624ZM69 624Q69 585 97 560T167 535Q208 535 236 560T265 624Q265 664 237 689T167 714Q126 714 98 689T69 624Z" />
<glyph unicode="&#xfd;" horiz-adv-x="545" d="M557 460H382L234 89L325 88L176 460H-12L194 29L86 -220H257L557 460ZM443 685L315 741L165 581L263 535L443 685Z" />
<glyph unicode="&#xfe;" horiz-adv-x="631" d="M227 -220V780H54V-220H227ZM600 230Q600 309 569 362T488 442T384 470Q327 470 282 441T210 359T183 230Q183 156 209 102T281 19T384 -10Q439 -10 488 17T568 98T600 230ZM418 230Q418 200 405 176T370 139T321
126Q298 126 277 138T241 174T227 230Q227 263 241 286T276 321T321 334Q348 334 370 321T405 285T418 230Z" />
<glyph unicode="&#xff;" horiz-adv-x="545" d="M557 460H382L234 89L325 88L176 460H-12L194 29L86 -220H257L557 460ZM303 621Q303 581 331 556T401 531Q441 531 469 556T498 621Q498 660 470 685T401 710Q360 710 332 685T303 621ZM46 621Q46 581 75 556T144
531Q185 531 213 556T242 621Q242 660 214 685T144 710Q104 710 75 685T46 621Z" />
<glyph unicode="&#x2013;" horiz-adv-x="796" d="M70 164H718V311H70V164Z" />
<glyph unicode="&#x2014;" horiz-adv-x="955" d="M70 164H881V311H70V164Z" />
<glyph unicode="&#x2018;" horiz-adv-x="348" d="M246 438L298 700H174L70 438H246Z" />
<glyph unicode="&#x2019;" horiz-adv-x="348" d="M102 700L50 438H174L278 700H102Z" />
<glyph unicode="&#x201a;" horiz-adv-x="348" d="M112 80L60 -182H184L288 80H112Z" />
<glyph unicode="&#x201c;" horiz-adv-x="588" d="M246 438L298 700H174L70 438H246ZM486 438L538 700H414L310 438H486Z" />
<glyph unicode="&#x201d;" horiz-adv-x="588" d="M102 700L50 438H174L278 700H102ZM342 700L290 438H414L518 700H342Z" />
<glyph unicode="&#x201e;" horiz-adv-x="588" d="M102 80L50 -182H174L278 80H102ZM342 80L290 -182H414L518 80H342Z" />
<glyph unicode="&#x2022;" horiz-adv-x="300" d="M59 451Q59 409 88 379T165 348Q212 348 241 378T270 451Q270 494 241 524T165 555Q118 555 89 525T59 451Z" />
<glyph unicode="&#x2039;" horiz-adv-x="350" d="M154 259L304 445L198 514L24 255L198 -4L304 65L154 259Z" />
<glyph unicode="&#x203a;" horiz-adv-x="350" d="M196 251L46 65L152 -4L326 255L152 514L46 445L196 251Z" />
</font>
</defs>
</svg>
